PathFileType	4	(X/Y/Z)	walk-thru1-5-TP.trc
DataRate	CameraRate	NumFrames	NumMarkers	Units	OrigDataRate	OrigDataStartFrame	OrigNumFrames
120.00	120.00	       4	60	mm	120.00	1	       521
Frame#	Time	Top.Head			Front.Head			Rear.Head			Jaw			C7			R.Clavicle			L.Clavicle			R.Shoulder			L.Shoulder			R.Scapula			L.Scapula			R.Scap.Inf			R.Biceps.Lateral			R.Elbow			R.Elbow.Medial			R.Forearm			R.Ulna			R.Radius			R.Wrist			R.Thumb.M1			R.Thumb.M2			R.Thumb.M3			R.Finger3.M1			R.Finger3.M2			R.Finger3.M3			L.Biceps.Lateral			L.Elbow			L.Elbow.Medial			L.Forearm			L.Ulna			L.Radius			L.Wrist			L.Thumb.M1			L.Thumb.M2			L.Thumb.M3			L.Finger3.M1			L.Finger3.M2			L.Finger3.M3			V.Sacral			R.ASIS			L.ASIS			R.Thigh			R.Thigh.Front			R.Knee			R.Knee.Medial			R.Shank			R.Ankle			R.Ankle.Medial			R.Heel			R.Toe			R.MedFoot			L.Thigh			L.Knee			L.Knee.Medial			L.Shank			L.Ankle			L.Ankle.Medial			L.Heel			L.Toe			L.MedFoot			V_mid_ASIS			V_R_Knee_JC			V_L_Knee_JC			V_R_Elbow_JC			V_L_Elbow_JC			V_R_Ankle_JC			V_L_Ankle_JC			V_R_Wrist_JC			V_L_Wrist_JC			V_R_ScaTrpz_1stMC_JC			V_R_1stMC_1stPP_JC			V_R_1stPP_1stDP_JC			V_R_LunCap_3rdMC_JC			V_R_3rdMC_3rdPP_JC			V_R_3rdPP_3rdMP_JC			V_R_3rdMP_3rdDP_JC			V_L_ScaTrpz_1stMC_JC			V_L_1stMC_1stPP_JC			V_L_1stPP_1stDP_JC			V_L_LunCap_3rdMC_JC			V_L_3rdMC_3rdPP_JC			V_L_3rdPP_3rdMP_JC			V_L_3rdMP_3rdPP_JC			V_ROOT_JC			V_R_Hip_JC			V_L_Hip_JC			V_R_GlenHum_JC			V_L_GlenHum_JC			V_ForeHead_Ctr			V_Vertex			V_Sagit_Lambdoid_Suture			V_R_FrontoTemp			V_L_FrontoTemporal			V_R_ParietalOccip			V_L_ParietalOcciptal			V_R_Temporal			V_L_Temporal			V_mid_FrontRearHead			V_mid_RLGlenHumCtrs			V_C7_vert			V_C1_vert			V_Mid_Hip			
		X1	Y1	Z1	X2	Y2	Z2	X3	Y3	Z3	X4	Y4	Z4	X5	Y5	Z5	X6	Y6	Z6	X7	Y7	Z7	X8	Y8	Z8	X9	Y9	Z9	X10	Y10	Z10	X11	Y11	Z11	X12	Y12	Z12	X13	Y13	Z13	X14	Y14	Z14	X15	Y15	Z15	X16	Y16	Z16	X17	Y17	Z17	X18	Y18	Z18	X19	Y19	Z19	X20	Y20	Z20	X21	Y21	Z21	X22	Y22	Z22	X23	Y23	Z23	X24	Y24	Z24	X25	Y25	Z25	X26	Y26	Z26	X27	Y27	Z27	X28	Y28	Z28	X29	Y29	Z29	X30	Y30	Z30	X31	Y31	Z31	X32	Y32	Z32	X33	Y33	Z33	X34	Y34	Z34	X35	Y35	Z35	X36	Y36	Z36	X37	Y37	Z37	X38	Y38	Z38	X39	Y39	Z39	X40	Y40	Z40	X41	Y41	Z41	X42	Y42	Z42	X43	Y43	Z43	X44	Y44	Z44	X45	Y45	Z45	X46	Y46	Z46	X47	Y47	Z47	X48	Y48	Z48	X49	Y49	Z49	X50	Y50	Z50	X51	Y51	Z51	X52	Y52	Z52	X53	Y53	Z53	X54	Y54	Z54	X55	Y55	Z55	X56	Y56	Z56	X57	Y57	Z57	X58	Y58	Z58	X59	Y59	Z59	X60	Y60	Z60	

1	0.000	1730.57739	106.38518	1816.30029	1623.97852	89.21403	1707.86353	1849.61304	113.34830	1713.13367	1662.02893	90.93977	1539.26990	1858.32227	105.33183	1577.64136	1752.34155	213.38696	1483.03845	1754.25769	-15.45116	1492.66333	1787.55237	302.60913	1474.60327	1829.47388	-106.76746	1503.39307	1901.04590	195.10542	1492.83752	1913.12891	24.40745	1503.80530	1949.16333	204.73595	1405.22241	1826.44995	360.55060	1294.24805	1852.03113	379.21533	1140.51013	1875.60950	291.54239	1124.18701	1763.69458	319.20905	1031.65576	1784.14648	362.54858	929.37830	1725.51697	295.94949	905.16064	1722.18188	335.38110	857.07458	1711.48694	290.17065	872.01685	1674.75549	255.07414	829.86487	1635.72693	252.17018	805.02502	1675.91125	336.86505	791.46967	1657.54370	294.51938	741.25256	1673.72363	250.28699	715.33490	1865.54468	-176.14548	1358.82031	1892.04944	-222.43811	1189.18262	1936.62842	-158.52127	1171.46631	1832.43677	-204.54414	1078.16553	1888.45813	-228.09761	992.68512	1820.35315	-177.73952	937.39484	1832.85010	-214.87025	881.23163	1814.91602	-166.73691	871.04803	1823.05090	-136.63901	818.63867	1825.64709	-144.57558	757.73859	1824.42102	-234.51688	805.21649	1839.89734	-213.01904	749.40643	1867.78577	-199.83867	706.09595	1952.24536	81.96457	1103.54980	1853.68701	263.44507	1041.38623	1859.38306	-110.69395	1048.20959	1805.32190	208.07616	635.35028	1725.39221	122.18620	567.23999	1783.40442	176.34425	507.85229	1785.13000	65.26992	513.02472	1788.94678	125.24066	326.27664	1909.45654	144.17590	80.33784	1875.60242	49.63829	102.66763	1965.70276	84.02160	59.30952	1724.56458	111.61380	52.52805	1794.01575	69.02064	78.65917	1724.91931	-118.49133	678.87750	1686.05774	-108.17490	535.97711	1683.74609	12.63156	527.65411	1753.75049	-59.88478	345.90869	1937.56689	-87.98829	160.20563	1887.73767	4.98352	179.72627	1991.10864	-24.35005	167.60741	1791.25403	-39.69116	70.53341	1827.74585	-13.20361	107.48088																																																																																																																															
2	0.008	1724.71045	105.84233	1815.87891	1618.62830	90.03184	1709.19531	1845.10461	112.58058	1711.94519	1657.03479	91.45435	1540.87024	1854.06555	105.09370	1578.74768	1747.19360	214.32845	1482.80493	1749.64465	-14.99261	1493.29736	1782.18359	303.08282	1475.41199	1823.40137	-106.14565	1504.22742	1897.17505	194.59361	1492.13525	1907.36096	24.67206	1503.38477	1943.72473	205.05383	1405.73206	1821.72095	361.87250	1293.95081	1847.16418	379.56619	1140.84338	1869.19836	291.85971	1124.35388	1756.37988	322.13663	1032.11841	1778.12952	363.50537	930.05164	1720.11255	296.68207	906.02216	1715.64746	336.55405	857.84583	1706.04187	288.81924	873.84491	1669.08130	255.10419	831.94739	1630.23975	252.51712	805.49188	1666.78821	335.80740	793.09631	1650.74255	295.47791	741.24597	1665.97656	250.36749	716.95172	1859.04590	-175.94778	1359.51660	1886.20593	-222.30537	1187.69495	1930.86340	-158.03207	1171.65076	1826.13501	-203.79599	1079.55579	1883.51514	-228.17720	992.89557	1815.26685	-176.56816	937.06171	1827.95386	-215.20595	880.79871	1811.06824	-166.41299	869.24915	1816.85608	-137.12361	819.10858	1821.92725	-143.92876	757.35217	1818.61304	-232.52228	805.66986	1835.45874	-213.41728	750.28534	1861.35571	-197.50757	706.50464	1947.41833	82.64359	1103.73926	1849.68689	263.90555	1041.42236	1858.47717	-111.31246	1048.13525	1801.73523	208.10376	635.32074	1723.59375	122.15173	566.24304	1781.93835	176.49757	507.84381	1783.99548	65.29585	513.11469	1788.10510	125.70018	326.15277	1909.50464	144.38036	80.50817	1875.60242	49.63829	102.66763	1965.59033	84.24226	59.43225	1724.25964	111.78313	52.36187	1794.73169	69.62899	78.57007	1717.58398	-116.89616	678.97083	1679.57239	-106.75912	536.56555	1676.28784	14.85659	529.23889	1741.90613	-59.42319	345.58237	1921.18884	-87.66603	155.00427	1872.54309	6.00465	176.00450	1972.77942	-23.90148	160.63867	1771.23950	-39.52666	69.47362	1808.56165	-11.37633	105.82186																																																																																																																															
3	0.017	1721.14331	106.19625	1815.84851	1612.76831	89.71527	1709.19531	1840.19312	112.60419	1711.59155	1651.89709	92.02387	1540.28162	1849.16113	106.10277	1578.76697	1741.09497	212.98706	1483.11743	1744.19080	-14.03176	1493.93567	1774.56738	301.95941	1475.92859	1818.33374	-106.57921	1504.21985	1892.24414	195.55414	1492.33484	1902.05103	24.60831	1503.25635	1938.76575	205.95303	1405.72571	1815.96765	361.59525	1294.45544	1841.32971	379.13748	1140.30737	1865.04138	292.13977	1124.22961	1751.46350	321.79761	1032.81677	1771.93384	362.02658	929.93542	1711.73425	298.30997	907.14630	1707.52991	338.36047	858.55450	1699.41394	291.50891	874.15228	1662.69922	254.85541	833.09827	1622.22400	254.41402	807.97955	1660.64429	337.37314	794.15228	1643.46375	294.75421	742.11682	1657.73950	250.89891	717.31427	1853.12354	-176.01907	1360.16760	1880.98047	-222.34224	1186.21045	1925.54883	-157.88005	1171.76538	1820.08484	-200.44865	1079.22168	1878.15271	-227.97697	992.32928	1810.21655	-174.88969	936.14844	1822.23425	-214.00327	880.43524	1808.16968	-164.79099	869.62006	1813.69238	-135.99954	819.58533	1815.64636	-143.75719	758.27936	1814.54309	-231.44678	805.55536	1829.24695	-213.54364	749.27679	1856.17444	-197.04234	706.87280	1942.79407	82.45324	1103.74841	1844.82898	263.61005	1041.79260	1851.30334	-111.07317	1048.55896	1799.63660	208.24869	635.95654	1721.48865	122.18366	565.89404	1778.67944	175.77647	507.77875	1782.96069	65.23056	513.04541	1787.89441	126.15359	326.68152	1909.85168	144.98384	80.92269	1875.23157	50.21984	103.35364	1965.39185	84.47410	59.58470	1723.76709	112.48122	53.00236	1794.73169	69.62899	78.57007	1711.13318	-116.87253	679.48126	1669.99280	-105.44917	537.36572	1669.48145	15.18680	529.37714	1729.07544	-57.55674	343.78525	1903.57239	-87.36114	150.22449	1857.37341	6.66862	172.01038	1955.87305	-23.11520	154.03290	1750.57056	-38.79554	68.98659	1790.06824	-12.16060	104.26171																																																																																																																															
4	0.025	1716.62292	106.15004	1816.87366	1608.95300	89.13062	1709.29443	1835.17163	113.53738	1712.54663	1646.21277	90.68327	1540.01831	1843.77405	106.22752	1578.84253	1736.88818	212.74799	1483.40527	1739.67896	-15.25505	1493.80750	1771.64075	302.58011	1475.88892	1812.94519	-106.72241	1504.38086	1885.89893	196.42375	1493.02417	1895.93652	24.80114	1503.65076	1934.23755	205.97205	1405.80151	1810.52368	360.95779	1295.70313	1836.07800	379.76437	1140.79004	1859.42358	292.87708	1124.44519	1745.05127	321.26266	1033.62256	1766.05676	362.65619	929.63013	1706.93811	296.35727	907.40521	1701.41980	335.86957	858.91772	1692.60071	289.82236	874.90338	1656.76257	255.13872	832.50159	1614.38892	253.22717	808.76453	1654.67322	336.77216	795.12146	1636.77979	294.84900	742.01569	1652.52832	250.44983	718.15643	1848.43933	-175.66229	1359.89624	1876.44312	-224.55867	1186.64575	1920.51050	-157.31805	1171.58545	1815.70325	-202.78894	1077.17444	1872.97009	-227.44612	992.47943	1805.30444	-176.57994	934.97986	1817.16760	-212.53864	879.85699	1798.84106	-164.93376	870.38062	1808.20837	-135.59149	819.69812	1806.36914	-144.29738	757.00964	1807.84473	-232.77292	805.89087	1823.77466	-211.90224	747.90649	1852.15930	-195.29062	706.91101	1937.33716	82.54237	1103.97961	1838.22205	264.04471	1041.81738	1843.14124	-111.34742	1048.58972	1796.55847	209.25465	635.38489	1719.86694	122.62848	565.32886	1777.48096	176.93941	507.98828	1781.37268	64.29492	512.77222	1787.34851	125.89280	326.70715	1909.33777	144.42578	80.73537	1875.60242	49.63829	102.66763	1965.30347	84.39644	59.81897	1724.77832	113.21650	53.11592	1794.60156	69.39332	77.96286	1705.24011	-116.13351	680.39490	1663.58154	-103.67876	538.81427	1662.15869	14.73470	530.06921	1717.53564	-57.76495	344.20374	1885.75842	-86.27616	144.37111	1840.56519	6.02905	168.46317	1939.49170	-22.33851	147.23346	1731.92114	-38.13071	67.96253	1771.29712	-9.85839	102.43270																																																																																																																															
